<?xml version="1.0" encoding="UTF-8" standalone="no"?>
<svg
   xmlns:dc="http://purl.org/dc/elements/1.1/"
   xmlns:cc="http://creativecommons.org/ns#"
   xmlns:rdf="http://www.w3.org/1999/02/22-rdf-syntax-ns#"
   xmlns:svg="http://www.w3.org/2000/svg"
   xmlns="http://www.w3.org/2000/svg"
   xmlns:sodipodi="http://sodipodi.sourceforge.net/DTD/sodipodi-0.dtd"
   xmlns:inkscape="http://www.inkscape.org/namespaces/inkscape"
   width="210mm"
   height="297mm"
   viewBox="0 0 210 297"
   version="1.1"
   id="svg8"
   sodipodi:docname="icon.svg"
   inkscape:version="1.0.2 (1.0.2+r75+1)"
   inkscape:export-filename="/home/user/Documents/imobiliaria/public/icon.png"
   inkscape:export-xdpi="96"
   inkscape:export-ydpi="96">
  <defs
     id="defs2" />
  <sodipodi:namedview
     id="base"
     pagecolor="#ffffff"
     bordercolor="#666666"
     borderopacity="1.0"
     inkscape:pageopacity="0.0"
     inkscape:pageshadow="2"
     inkscape:zoom="0.35"
     inkscape:cx="434.63605"
     inkscape:cy="488.98514"
     inkscape:document-units="mm"
     inkscape:current-layer="layer1"
     inkscape:document-rotation="0"
     showgrid="false"
     inkscape:window-width="1366"
     inkscape:window-height="704"
     inkscape:window-x="0"
     inkscape:window-y="0"
     inkscape:window-maximized="1" />
  <metadata
     id="metadata5">
    <rdf:RDF>
      <cc:Work
         rdf:about="">
        <dc:format>image/svg+xml</dc:format>
        <dc:type
           rdf:resource="http://purl.org/dc/dcmitype/StillImage" />
      </cc:Work>
    </rdf:RDF>
  </metadata>
  <g
     inkscape:label="Layer 1"
     inkscape:groupmode="layer"
     id="layer1">
    <path
       style="fill:#000000;stroke:#000000;stroke-width:0.155745"
       d="m 101.14229,171.30719 c -5.241565,-0.61073 -10.456395,-2.74268 -14.768616,-6.03773 -1.285329,-0.98216 -3.822662,-3.45311 -4.916725,-4.7881 -4.415132,-5.38743 -6.843805,-12.22651 -6.841351,-19.2651 6.89e-4,-2.09632 0.37729,-5.24663 0.852314,-7.13051 2.062487,-8.17955 7.265866,-15.07508 14.454157,-19.15468 12.448751,-7.06506 28.254531,-4.20215 37.464741,6.78603 6.43224,7.67396 8.68647,18.02138 6.02949,27.67672 -3.60795,13.1111 -15.55226,22.19135 -29.02305,22.06379 -1.17344,-0.0117 -2.63637,-0.0788 -3.25096,-0.15042 z m 13.92826,-2.25048 c 2.98059,-1.08595 6.257,-3.06854 9.20573,-5.57049 2.17977,-1.8495 4.39853,-4.64192 6.32694,-7.96282 1.19079,-2.05063 1.28359,-2.46745 0.65551,-2.94427 -0.43213,-0.32807 -0.44237,-0.32849 -0.93448,-0.0382 -0.95168,0.56156 -2.21202,1.17787 -2.41269,1.17983 -0.11106,10e-4 -0.32051,-0.20465 -0.46544,-0.45719 -0.51853,-0.90347 -1.43024,-1.01539 -2.60329,-0.31957 -0.95647,0.56737 -1.09774,0.57174 -1.8546,0.0574 l -0.60308,-0.4098 -0.68321,0.33193 c -0.89664,0.43562 -1.10644,0.41931 -1.41001,-0.10966 l -0.25342,-0.44155 -1.10211,0.5469 c -0.60617,0.3008 -1.416,0.58709 -1.79963,0.63623 -0.61025,0.0781 -0.7141,0.14779 -0.83008,0.55657 -0.0729,0.25698 -0.20508,0.6775 -0.29371,0.93448 -0.33247,0.96404 -0.32743,1.27384 0.0248,1.52052 l 0.33574,0.23515 -0.5808,0.91323 c -0.60285,0.9479 -1.2207,1.71524 -2.75455,3.421 -0.55583,0.61811 -0.85869,1.07708 -0.78842,1.19478 0.0628,0.1051 0.56474,0.69524 1.11552,1.31141 1.01829,1.13918 1.54382,1.44949 2.45486,1.44949 1.51353,0 1.36308,0.4606 -0.90603,2.77369 -1.04934,1.06967 -1.76772,1.89336 -1.5964,1.8304 0.17132,-0.0629 0.96012,-0.35078 1.75289,-0.63962 z m -1.20778,-12.21899 c 0.36986,-0.36985 0.438,-0.76611 0.0808,-0.46962 -0.18464,0.15323 -0.38872,0.13467 -1.02156,-0.0929 -0.43495,-0.15641 -0.86359,-0.37205 -0.95252,-0.47921 -0.0889,-0.10718 -0.18165,-0.64166 -0.20603,-1.18779 -0.0551,-1.23427 -0.24956,-1.61106 -0.89745,-1.73908 -1.43926,-0.28438 -1.60897,-0.52164 -1.44804,-2.02439 0.12787,-1.19396 -0.0791,-1.484 -1.05631,-1.48042 -0.82957,0.003 -0.97216,0.10575 -1.09795,0.79037 -0.15134,0.82375 -0.72171,1.29784 -1.42425,1.18383 -0.77459,-0.12568 -1.9351,-1.00061 -2.46577,-1.85895 -0.4333,-0.70084 -0.44121,-0.75297 -0.3331,-2.19499 l 0.11074,-1.4771 0.69237,-0.49722 c 0.38081,-0.27348 1.09132,-0.59072 1.57891,-0.70498 0.81447,-0.19086 0.92841,-0.18323 1.40162,0.094 0.63552,0.37233 0.65301,0.37232 0.65301,-3.5e-4 0,-0.41146 0.1208,-0.46464 1.59711,-0.70318 0.7063,-0.11409 1.43657,-0.25674 1.62282,-0.31694 0.27096,-0.0875 0.3835,-0.0208 0.56322,0.33393 0.12353,0.24387 0.27186,0.68868 0.32961,0.9885 0.0577,0.2998 0.30459,0.77839 0.54853,1.06351 l 0.44353,0.51839 0.25101,-0.35837 c 0.35329,-0.5044 0.31275,-1.17363 -0.13835,-2.28381 -0.21415,-0.52702 -0.38937,-1.07504 -0.38937,-1.21783 0,-0.26982 0.79781,-1.32073 1.67376,-2.20477 0.42541,-0.42934 0.50668,-0.62723 0.50668,-1.2337 0,-0.45609 -0.0958,-0.82824 -0.25999,-1.00963 -0.2435,-0.26906 -0.24144,-0.30086 0.0323,-0.50102 0.16075,-0.1176 0.37041,-0.44934 0.46591,-0.73732 0.12052,-0.3634 0.44379,-0.71084 1.0567,-1.13567 0.83173,-0.57651 0.86829,-0.62841 0.62885,-0.89298 -0.23644,-0.26127 -0.22819,-0.31984 0.11805,-0.83807 0.32955,-0.49326 0.43135,-0.5481 0.8874,-0.47812 0.75057,0.11512 0.95448,-0.0208 1.06467,-0.70988 0.0852,-0.53258 0.17888,-0.648 0.69323,-0.85381 0.53713,-0.21492 0.5861,-0.28133 0.50531,-0.68527 -0.20305,-1.01525 0.0572,-1.28564 1.55929,-1.61977 l 0.444,-0.0987 -0.86033,-0.61608 c -0.47319,-0.33884 -0.89449,-0.61607 -0.93622,-0.61607 -0.0417,0 -0.359,0.44828 -0.70504,0.99619 -0.59205,0.93745 -1.33573,1.65148 -1.72006,1.65148 -0.0939,0 -0.17063,-0.0643 -0.17063,-0.14301 0,-0.0787 -0.0414,-0.25077 -0.0919,-0.38248 -0.0588,-0.15309 0.16202,-0.49705 0.61198,-0.95347 1.28468,-1.30312 1.10712,-2.1169 -0.63219,-2.89727 -0.7378,-0.33103 -1.28119,-0.73078 -1.94267,-1.42914 -0.64066,-0.67638 -0.88881,-0.86134 -0.82063,-0.61167 0.0538,0.19685 0.0145,0.45821 -0.0872,0.58078 -0.23253,0.28019 -0.62441,0.0995 -1.40901,-0.64971 -0.44532,-0.42524 -0.75222,-0.56244 -1.54287,-0.68977 -1.31302,-0.21145 -1.62001,-0.0934 -1.01395,0.38984 0.39396,0.31413 0.42748,0.39771 0.24682,0.6154 -0.16985,0.20466 -0.17275,0.33953 -0.0154,0.71927 0.10648,0.25705 0.24393,0.46738 0.30545,0.46738 0.15384,0 0.47334,0.72958 0.47334,1.08087 0,0.15813 -0.10569,0.32806 -0.23487,0.37764 -0.19538,0.075 -0.2177,0.31346 -0.13277,1.41837 0.0697,0.90672 0.049,1.32825 -0.0653,1.32825 -0.23945,0 -0.80262,-0.75754 -0.91613,-1.23234 -0.053,-0.22164 -0.19343,-0.59573 -0.3121,-0.83129 -0.18591,-0.36905 -0.30999,-0.4283 -0.8968,-0.4283 -0.4555,0 -0.9752,-0.15475 -1.56927,-0.46724 -0.48853,-0.25698 -1.0147,-0.46724 -1.16927,-0.46724 -0.19486,0 -0.35604,-0.22014 -0.52565,-0.7179 -0.27696,-0.81282 -0.22585,-0.98032 0.61763,-2.02451 0.56997,-0.7056 1.00355,-0.92125 2.16573,-1.07719 l 0.77695,-0.10432 -0.44516,-0.23324 c -0.37896,-0.19856 -0.41313,-0.26527 -0.22976,-0.44865 0.11848,-0.11851 0.43638,-0.2596 0.70645,-0.3136 0.4265,-0.0853 0.49788,-0.052 0.54303,0.25397 0.0424,0.28743 0.23807,0.40463 1.06432,0.63757 2.08225,0.58703 2.50869,0.41017 2.54152,-1.05402 0.0179,-0.79689 -0.0452,-1.00972 -0.49091,-1.65655 -0.56033,-0.81318 -0.95711,-1.12523 -1.64654,-1.29493 -0.34342,-0.0845 -0.50171,-0.0442 -0.65649,0.16753 -0.16538,0.22619 -0.34487,0.26193 -0.94918,0.18899 -0.40987,-0.0495 -1.00804,-0.20063 -1.32926,-0.33592 -0.50699,-0.21353 -0.58405,-0.3137 -0.58405,-0.75923 0,-0.28228 0.0942,-0.64202 0.20924,-0.79942 0.20201,-0.27625 0.24647,-0.27384 1.2849,0.0698 3.00254,0.99349 3.07109,1.03296 5.04341,2.90413 1.01955,0.96726 2.01715,1.79968 2.2169,1.84981 0.19975,0.0501 0.83855,0.0701 1.41955,0.0443 l 1.05637,-0.0469 -1.07253,-1.09077 c -0.87403,-0.88893 -1.09177,-1.21123 -1.17658,-1.74161 -0.0572,-0.35794 -0.0429,-0.81324 0.032,-1.01178 0.22596,-0.59965 -0.043,-1.00094 -0.85656,-1.27817 -0.40961,-0.13956 -1.20768,-0.53346 -1.7735,-0.87534 -0.91533,-0.55305 -1.78444,-0.84321 -3.93567,-1.31401 -0.2602,-0.0569 -0.49008,-0.24296 -0.57444,-0.46481 -0.0774,-0.20344 -0.21503,-0.41588 -0.30598,-0.47209 -0.0909,-0.0563 -0.16535,-0.21224 -0.16535,-0.34674 0,-0.2096 0.16138,-0.22924 1.12916,-0.13744 1.09121,0.10354 1.11673,0.0982 0.75959,-0.15784 -0.48066,-0.34463 -1.79868,-0.8435 -2.22854,-0.8435 -0.18505,0 -0.7625,-0.20478 -1.28323,-0.45506 l -0.94678,-0.45508 -2.25831,0.297 c -1.24207,0.16335 -2.74891,0.28666 -3.34853,0.274 -1.188852,-0.0251 -1.759537,0.18146 -2.402273,0.86945 -0.276964,0.29648 -0.533643,0.40417 -0.963271,0.40417 -0.911099,0 -1.382877,0.25057 -2.474918,1.31449 -1.017118,0.99092 -1.294301,1.13149 -3.270656,1.65871 l -0.700856,0.18696 1.168092,0.23014 c 0.64245,0.12658 1.422803,0.23904 1.73411,0.24993 0.397066,0.0139 0.698281,0.15195 1.009106,0.46255 0.726747,0.72621 1.224165,0.91851 1.894401,0.73237 0.846412,-0.23507 1.60811,-0.20057 1.814884,0.0822 0.159828,0.21857 0.311032,0.1926 1.402041,-0.24079 1.56028,-0.61981 2.07051,-0.53335 0.67115,0.11369 -1.127669,0.52146 -1.142331,0.53966 -1.273018,1.58118 -0.04739,0.37773 -0.120323,0.72094 -0.162083,0.76269 -0.04175,0.0418 -0.523922,-0.14465 -1.071495,-0.41422 -0.547579,-0.26956 -1.120407,-0.49012 -1.272957,-0.49012 -0.152551,0 -0.529422,-0.27243 -0.837487,-0.60538 -0.424299,-0.45858 -0.819032,-0.68517 -1.627813,-0.93447 -1.714262,-0.5284 -2.465171,-0.35634 -1.219136,0.27933 0.651258,0.33225 1.06458,0.74361 0.906249,0.90193 -0.05561,0.0556 -0.428989,-6.9e-4 -0.829715,-0.12515 -0.518725,-0.16109 -0.801985,-0.35954 -0.983394,-0.68894 -0.49545,-0.89963 -1.632369,-1.15196 -2.477826,-0.54994 -0.475392,0.33851 -0.812229,0.36117 -1.437943,0.0968 -0.166878,-0.0706 -0.371164,0.0144 -0.584044,0.24296 -0.416714,0.44729 -0.411452,0.50654 0.06772,0.763 0.217319,0.1163 0.373491,0.32088 0.347051,0.45462 -0.03796,0.19204 -0.272401,0.24315 -1.115232,0.24315 -0.79576,0 -1.095197,0.0594 -1.177399,0.23362 -0.06064,0.12854 -0.22718,0.46707 -0.37011,0.75242 -0.399526,0.7976 -0.33598,1.10061 0.28524,1.36018 0.584768,0.24433 0.760861,0.62782 0.223797,0.48738 -0.17672,-0.0462 -0.614757,0.0492 -0.973409,0.21203 -0.358654,0.16283 -0.840696,0.2976 -1.071207,0.29947 -0.230509,0.001 -0.464418,0.0767 -0.519798,0.16635 -0.06878,0.11122 0.162802,0.12398 0.730604,0.0402 0.457207,-0.0675 1.181715,-0.1232 1.610013,-0.12398 0.646262,-0.001 0.793024,-0.0543 0.862763,-0.31282 0.14284,-0.52949 0.766287,-0.45277 1.905035,0.23445 0.580028,0.35004 1.134122,0.58729 1.231313,0.52722 0.127786,-0.0789 0.151208,0.13797 0.0846,0.78338 -0.0869,0.84203 -0.06181,0.93232 0.442992,1.59364 0.29431,0.38558 0.578551,0.87411 0.63164,1.08564 0.09028,0.35969 0.11471,0.36816 0.377143,0.13065 0.261486,-0.23664 0.296757,-0.22917 0.517497,0.10952 0.130287,0.19995 0.465278,0.85268 0.744422,1.45054 0.421649,0.90302 0.501364,1.24567 0.471027,2.02469 -0.03071,0.78856 -0.110985,1.02439 -0.504712,1.48281 -0.25751,0.29981 -0.638264,0.89658 -0.846126,1.32616 -0.341548,0.70585 -0.379795,0.99297 -0.397283,2.98217 -0.01999,2.2748 0.08108,2.7591 0.610938,2.92727 0.574758,0.18242 0.773107,0.61423 0.933046,2.03127 0.224967,1.99319 1.388485,5.23642 2.165124,6.03513 0.655367,0.674 0.757313,0.70336 0.898455,0.25867 0.07405,-0.23332 -0.03649,-0.4993 -0.390697,-0.94006 -0.386248,-0.48063 -0.511156,-0.80877 -0.572774,-1.50463 -0.04334,-0.48947 -0.208438,-1.24038 -0.366892,-1.66867 -0.609205,-1.64669 -0.432461,-1.47966 0.626821,0.5924 0.88091,1.72315 1.204778,2.21224 1.631653,2.46412 0.469921,0.27725 0.588976,0.49162 1.011699,1.82164 0.433761,1.36473 0.555066,1.57732 1.281678,2.24613 0.721947,0.66452 2.62448,1.76088 3.98284,2.29515 0.43986,0.173 0.59548,0.16346 1.10882,-0.068 l 0.59716,-0.26927 0.72484,0.55328 c 0.81015,0.6184 1.55963,0.87524 2.55778,0.87653 0.85865,0.001 1.27466,0.22629 1.27466,0.68995 0,0.54465 0.41441,0.93844 1.7132,1.62793 1.34582,0.71447 2.16195,0.81639 2.64767,0.33067 z m 1.86895,-6.46344 c 0,-0.25439 -0.85082,-0.33923 -0.99892,-0.0996 -0.12969,0.20984 0.0768,0.33321 0.55764,0.33321 0.28842,0 0.44128,-0.0809 0.44128,-0.23361 z m 3.44935,-0.56598 c 0.50134,-0.18279 0.91152,-0.38731 0.91152,-0.45449 0,-0.0672 0.0424,-0.23267 0.0943,-0.36777 0.0808,-0.2106 -0.0135,-0.2315 -0.66192,-0.1466 -1.0766,0.14099 -1.61277,0.44548 -1.61277,0.91586 0,0.46992 0.11259,0.47462 1.26891,0.053 z m -2.31652,-0.56866 c 0.15193,-0.13428 0.21833,-0.30204 0.14755,-0.37282 -0.12858,-0.12855 -2.24039,-0.47269 -2.68209,-0.43704 -0.12849,0.0104 -0.84687,0.0104 -1.59639,0.001 -0.74953,-0.009 -1.36171,0.0382 -1.36039,0.10627 0.0104,0.54108 0.84188,0.84524 1.98639,0.72668 0.63757,-0.066 1.04823,-0.0234 1.43762,0.14932 0.63531,0.2818 1.64818,0.19667 2.06731,-0.17375 z m 4.82198,-0.51001 c 0.39269,-0.36793 0.43763,-0.45978 0.19714,-0.40296 -0.17133,0.0405 -0.58114,0.11916 -0.91071,0.17497 -0.58124,0.0983 -0.59103,0.11044 -0.32629,0.40296 0.36082,0.39871 0.44219,0.38501 1.03986,-0.17497 z m 11.63919,-14.34017 c -0.85081,-3.33323 -2.36458,-7.17204 -2.69706,-6.83957 -0.0879,0.0879 -0.1641,0.77384 -0.16938,1.52437 -0.008,1.18289 0.0449,1.46829 0.39971,2.14331 0.22512,0.4283 0.68275,1.30437 1.01696,1.94683 0.67736,1.3021 1.60291,2.70743 1.71156,2.59877 0.0389,-0.0389 -0.0789,-0.65709 -0.26179,-1.37371 z m -3.27099,-7.83753 c 0.15361,-0.1851 0.009,-0.49357 -0.78345,-1.67427 -1.70798,-2.54392 -2.62355,-3.66508 -4.24568,-5.19897 -3.05567,-2.88947 -5.85512,-4.73979 -9.44502,-6.24281 -1.06822,-0.44723 -1.96698,-0.78839 -1.99724,-0.75813 -0.083,0.083 0.42078,1.028 0.86195,1.61704 0.34455,0.46005 0.45583,0.51201 0.95502,0.44598 0.31076,-0.0412 0.71177,-0.12307 0.89113,-0.18209 0.25696,-0.0846 0.60366,0.1275 1.63533,1.00069 1.25891,1.06547 2.95907,2.02782 3.97775,2.25156 0.48995,0.10757 0.97351,0.52866 1.26966,1.10554 0.15081,0.29376 0.12023,0.31036 -0.46829,0.25424 -0.68084,-0.065 -0.68166,-0.0554 -0.0681,0.78748 0.33292,0.45738 1.06341,0.78641 1.43194,0.64499 0.34918,-0.134 0.97787,0.3539 1.22827,0.95322 0.18409,0.44057 0.3546,0.57217 0.97423,0.7518 0.80451,0.23324 1.13403,0.63407 1.13815,1.38452 10e-4,0.22998 0.0757,0.61121 0.1654,0.84717 0.26671,0.7015 1.74609,2.20819 2.19294,2.23342 0.0538,0.003 0.18248,-0.0966 0.28605,-0.22138 z m -44.378786,-2.19092 c 0.108354,-0.13057 0.157981,-0.27641 0.110282,-0.32411 -0.11919,-0.11916 -0.736386,0.22547 -0.736386,0.41123 0,0.23354 0.406974,0.17692 0.626106,-0.0871 z m -2.68332,-1.29748 c 0.05152,-0.15671 -0.0256,-0.18227 -0.299482,-0.0994 -0.59514,0.18027 -0.744104,0.41932 -0.225119,0.36126 0.250377,-0.028 0.486446,-0.14588 0.524601,-0.26194 z"
       id="path2613"
       inkscape:export-xdpi="96"
       inkscape:export-ydpi="96" />
  </g>
</svg>
