<?xml version="1.0" encoding="UTF-8" standalone="no"?>
<svg
   xmlns:dc="http://purl.org/dc/elements/1.1/"
   xmlns:cc="http://creativecommons.org/ns#"
   xmlns:rdf="http://www.w3.org/1999/02/22-rdf-syntax-ns#"
   xmlns:svg="http://www.w3.org/2000/svg"
   xmlns="http://www.w3.org/2000/svg"
   xmlns:sodipodi="http://sodipodi.sourceforge.net/DTD/sodipodi-0.dtd"
   xmlns:inkscape="http://www.inkscape.org/namespaces/inkscape"
   width="210mm"
   height="297mm"
   viewBox="0 0 210 297"
   version="1.1"
   id="svg8"
   inkscape:version="1.0.2 (1.0.2+r75+1)"
   sodipodi:docname="logo.svg"
   inkscape:export-filename="/home/user/Documents/imobiliaria/src/images/logo.png"
   inkscape:export-xdpi="96"
   inkscape:export-ydpi="96">
  <defs
     id="defs2" />
  <sodipodi:namedview
     id="base"
     pagecolor="#ffffff"
     bordercolor="#666666"
     borderopacity="1.0"
     inkscape:pageopacity="0.0"
     inkscape:pageshadow="2"
     inkscape:zoom="0.35"
     inkscape:cx="355.94282"
     inkscape:cy="416.73584"
     inkscape:document-units="mm"
     inkscape:current-layer="layer1"
     inkscape:document-rotation="0"
     showgrid="false"
     inkscape:window-width="1366"
     inkscape:window-height="704"
     inkscape:window-x="0"
     inkscape:window-y="0"
     inkscape:window-maximized="1" />
  <metadata
     id="metadata5">
    <rdf:RDF>
      <cc:Work
         rdf:about="">
        <dc:format>image/svg+xml</dc:format>
        <dc:type
           rdf:resource="http://purl.org/dc/dcmitype/StillImage" />
        <dc:title />
      </cc:Work>
    </rdf:RDF>
  </metadata>
  <g
     inkscape:label="Layer 1"
     inkscape:groupmode="layer"
     id="layer1">
    <text
       xml:space="preserve"
       style="font-style:normal;font-weight:normal;font-size:62.3131px;line-height:1.25;font-family:sans-serif;letter-spacing:0px;word-spacing:0px;fill:#ffffff;fill-opacity:1;stroke:#ffffff;stroke-width:1.55783;"
       x="48.969074"
       y="161.62459"
       id="text30"><tspan
         sodipodi:role="line"
         id="tspan28"
         x="48.969074"
         y="161.62459"
         style="font-style:normal;font-variant:normal;font-weight:bold;font-stretch:normal;font-family:Ubuntu;-inkscape-font-specification:'Ubuntu Bold';fill:#ffffff;stroke:#ffffff;stroke-width:1.55783;">Mundi</tspan></text>
    <path
       style="fill:#ffffff;stroke:#ffffff;stroke-width:0.155745"
       d="m 7.9231127,169.57606 c -5.241562,-0.61073 -10.456392,-2.74268 -14.768613,-6.03773 -1.285329,-0.98216 -3.8226617,-3.45311 -4.9167247,-4.7881 -4.415132,-5.38743 -6.843805,-12.22651 -6.841351,-19.2651 6.89e-4,-2.09632 0.37729,-5.24663 0.852314,-7.13051 2.062487,-8.17955 7.265866,-15.07508 14.4541567,-19.15468 12.448755,-7.06506 28.2545353,-4.20215 37.4647373,6.78603 6.432243,7.67396 8.686474,18.02138 6.029491,27.67672 -3.607951,13.1111 -15.552259,22.19135 -29.023048,22.06379 -1.173439,-0.0117 -2.6363723,-0.0788 -3.2509623,-0.15042 z m 13.9282603,-2.25048 c 2.980592,-1.08595 6.257002,-3.06854 9.20573,-5.57049 2.179769,-1.8495 4.398525,-4.64192 6.326941,-7.96282 1.190785,-2.05063 1.283584,-2.46745 0.655504,-2.94427 -0.43213,-0.32807 -0.442362,-0.32849 -0.934476,-0.0382 -0.951679,0.56156 -2.212017,1.17787 -2.412685,1.17983 -0.111064,0.001 -0.320514,-0.20465 -0.46545,-0.45719 -0.518523,-0.90347 -1.430234,-1.01539 -2.603281,-0.31957 -0.956472,0.56737 -1.097744,0.57174 -1.854605,0.0574 l -0.603077,-0.4098 -0.683205,0.33193 c -0.896648,0.43562 -1.106448,0.41931 -1.410017,-0.10966 l -0.253415,-0.44155 -1.102111,0.5469 c -0.606167,0.3008 -1.415998,0.58709 -1.799629,0.63623 -0.610254,0.0781 -0.714098,0.14779 -0.830083,0.55657 -0.07292,0.25698 -0.205078,0.6775 -0.293707,0.93448 -0.332472,0.96404 -0.327428,1.27384 0.02477,1.52052 l 0.335735,0.23515 -0.580801,0.91323 c -0.602842,0.9479 -1.220692,1.71524 -2.754549,3.421 -0.555826,0.61811 -0.858688,1.07708 -0.788415,1.19478 0.06276,0.1051 0.56474,0.69524 1.115516,1.31141 1.018294,1.13918 1.543821,1.44949 2.454866,1.44949 1.513529,0 1.363074,0.4606 -0.906038,2.77369 -1.049336,1.06967 -1.767713,1.89336 -1.596393,1.8304 0.171319,-0.0629 0.960118,-0.35078 1.752886,-0.63962 z m -1.207777,-12.21899 c 0.369859,-0.36985 0.437995,-0.76611 0.08076,-0.46962 -0.184641,0.15323 -0.38872,0.13467 -1.021559,-0.0929 -0.434953,-0.15641 -0.863589,-0.37205 -0.952518,-0.47921 -0.08894,-0.10718 -0.18165,-0.64166 -0.206036,-1.18779 -0.05512,-1.23427 -0.249557,-1.61106 -0.89745,-1.73908 -1.439253,-0.28438 -1.608965,-0.52164 -1.448033,-2.02439 0.127863,-1.19396 -0.07909,-1.484 -1.056315,-1.48042 -0.829572,0.003 -0.972164,0.10575 -1.097953,0.79037 -0.151334,0.82375 -0.721708,1.29784 -1.424249,1.18383 -0.774588,-0.12568 -1.935098,-1.00061 -2.465768,-1.85895 -0.4332953,-0.70084 -0.4412063,-0.75297 -0.3330963,-2.19499 l 0.110738,-1.4771 0.6923733,-0.49722 c 0.380806,-0.27348 1.091313,-0.59072 1.578906,-0.70498 0.814473,-0.19086 0.928408,-0.18323 1.401615,0.094 0.63552,0.37233 0.653018,0.37232 0.653018,-3.5e-4 0,-0.41146 0.120792,-0.46464 1.597104,-0.70318 0.706303,-0.11409 1.436571,-0.25674 1.622818,-0.31694 0.270968,-0.0875 0.383507,-0.0208 0.563229,0.33393 0.123526,0.24387 0.271853,0.68868 0.329604,0.9885 0.05775,0.2998 0.304592,0.77839 0.548532,1.06351 l 0.443533,0.51839 0.251008,-0.35837 c 0.35329,-0.5044 0.312751,-1.17363 -0.138352,-2.28381 -0.214151,-0.52702 -0.389365,-1.07504 -0.389365,-1.21783 0,-0.26982 0.797802,-1.32073 1.673752,-2.20477 0.425414,-0.42934 0.506687,-0.62723 0.506687,-1.2337 0,-0.45609 -0.09584,-0.82824 -0.259998,-1.00963 -0.243492,-0.26906 -0.241438,-0.30086 0.03229,-0.50102 0.160755,-0.1176 0.370417,-0.44934 0.465916,-0.73732 0.120518,-0.3634 0.443791,-0.71084 1.056697,-1.13567 0.831733,-0.57651 0.868288,-0.62841 0.628856,-0.89298 -0.236446,-0.26127 -0.228196,-0.31984 0.118044,-0.83807 0.329553,-0.49326 0.431349,-0.5481 0.887406,-0.47812 0.750568,0.11512 0.954475,-0.0208 1.064663,-0.70988 0.08516,-0.53258 0.178884,-0.648 0.693237,-0.85381 0.53713,-0.21492 0.586098,-0.28133 0.505308,-0.68527 -0.203048,-1.01525 0.05724,-1.28564 1.559283,-1.61977 l 0.444008,-0.0987 -0.860336,-0.61608 c -0.473187,-0.33884 -0.894484,-0.61607 -0.936219,-0.61607 -0.04173,0 -0.359001,0.44828 -0.705035,0.99619 -0.592052,0.93745 -1.335735,1.65148 -1.720059,1.65148 -0.09385,0 -0.170638,-0.0643 -0.170638,-0.14301 0,-0.0787 -0.04136,-0.25077 -0.09191,-0.38248 -0.05875,-0.15309 0.162023,-0.49705 0.611982,-0.95347 1.284686,-1.30312 1.107123,-2.1169 -0.632184,-2.89727 -0.737802,-0.33103 -1.281192,-0.73078 -1.942673,-1.42914 -0.640658,-0.67638 -0.88881,-0.86134 -0.820635,-0.61167 0.05375,0.19685 0.01451,0.45821 -0.08724,0.58078 -0.232531,0.28019 -0.624407,0.0995 -1.409009,-0.64971 -0.445321,-0.42524 -0.752215,-0.56244 -1.542863,-0.68977 -1.313025,-0.21145 -1.620018,-0.0934 -1.01395,0.38984 0.393956,0.31413 0.42748,0.39771 0.246818,0.6154 -0.169856,0.20466 -0.172757,0.33953 -0.01543,0.71927 0.106479,0.25705 0.243925,0.46738 0.305446,0.46738 0.15384,0 0.473339,0.72958 0.473339,1.08087 0,0.15813 -0.105685,0.32806 -0.234868,0.37764 -0.195375,0.075 -0.2177,0.31346 -0.132769,1.41837 0.0697,0.90672 0.04897,1.32825 -0.06531,1.32825 -0.239453,0 -0.802616,-0.75754 -0.916127,-1.23234 -0.05299,-0.22164 -0.193438,-0.59573 -0.312104,-0.83129 -0.185908,-0.36905 -0.309985,-0.4283 -0.896802,-0.4283 -0.455496,0 -0.9752,-0.15475 -1.569272,-0.46724 -0.488528,-0.25698 -1.014695,-0.46724 -1.169263,-0.46724 -0.194861,0 -0.356044,-0.22014 -0.525651,-0.7179 -0.276958,-0.81282 -0.225854,-0.98032 0.617629,-2.02451 0.569965,-0.7056 1.003549,-0.92125 2.165728,-1.07719 l 0.776948,-0.10432 -0.445159,-0.23324 c -0.378962,-0.19856 -0.413126,-0.26527 -0.229753,-0.44865 0.118474,-0.11851 0.436376,-0.2596 0.706448,-0.3136 0.426493,-0.0853 0.497882,-0.052 0.543025,0.25397 0.04242,0.28743 0.238071,0.40463 1.064327,0.63757 2.082249,0.58703 2.50869,0.41017 2.541512,-1.05402 0.01788,-0.79689 -0.0452,-1.00972 -0.490905,-1.65655 -0.560327,-0.81318 -0.957114,-1.12523 -1.646543,-1.29493 -0.34342,-0.0845 -0.501707,-0.0442 -0.656485,0.16753 -0.165386,0.22619 -0.344873,0.26193 -0.949179,0.18899 -0.40987,-0.0495 -1.008042,-0.20063 -1.329266,-0.33592 -0.506987,-0.21353 -0.584048,-0.3137 -0.584048,-0.75923 0,-0.28228 0.09416,-0.64202 0.209244,-0.79942 0.202005,-0.27625 0.246466,-0.27384 1.2849,0.0698 3.002533,0.99349 3.071089,1.03296 5.043403,2.90413 1.019548,0.96726 2.017154,1.79968 2.216902,1.84981 0.199754,0.0501 0.838548,0.0701 1.419549,0.0443 l 1.056367,-0.0469 -1.072521,-1.09077 c -0.874035,-0.88893 -1.091774,-1.21123 -1.176584,-1.74161 -0.05724,-0.35794 -0.04286,-0.81324 0.03195,-1.01178 0.225961,-0.59965 -0.04296,-1.00094 -0.856565,-1.27817 -0.409609,-0.13956 -1.20768,-0.53346 -1.7735,-0.87534 -0.915325,-0.55305 -1.784437,-0.84321 -3.935661,-1.31401 -0.260205,-0.0569 -0.490088,-0.24296 -0.574441,-0.46481 -0.07735,-0.20344 -0.215036,-0.41588 -0.305981,-0.47209 -0.09094,-0.0563 -0.165351,-0.21224 -0.165351,-0.34674 0,-0.2096 0.161379,-0.22924 1.129154,-0.13744 1.091216,0.10354 1.116739,0.0982 0.759592,-0.15784 -0.480654,-0.34463 -1.798674,-0.8435 -2.228538,-0.8435 -0.185048,0 -0.762499,-0.20478 -1.283227,-0.45506 l -0.946784,-0.45508 -2.258313,0.297 c -1.2420683,0.16335 -2.7489093,0.28666 -3.3485293,0.274 -1.188848,-0.0251 -1.759533,0.18146 -2.402269,0.86945 -0.276964,0.29648 -0.533643,0.40417 -0.963271,0.40417 -0.911099,0 -1.382877,0.25057 -2.474918,1.31449 -1.01711798,0.99092 -1.29430098,1.13149 -3.270656,1.65871 l -0.700856,0.18696 1.168092,0.23014 c 0.64245002,0.12658 1.42280302,0.23904 1.73411002,0.24993 0.39706598,0.0139 0.69828098,0.15195 1.00910598,0.46255 0.726747,0.72621 1.224165,0.91851 1.894401,0.73237 0.846412,-0.23507 1.60811,-0.20057 1.814884,0.0822 0.159828,0.21857 0.311032,0.1926 1.402038,-0.24079 1.560285,-0.61981 2.070514,-0.53335 0.671149,0.11369 -1.127665,0.52146 -1.142327,0.53966 -1.273014,1.58118 -0.04739,0.37773 -0.120323,0.72094 -0.162083,0.76269 -0.04175,0.0418 -0.523922,-0.14465 -1.071495,-0.41422 -0.547579,-0.26956 -1.120407,-0.49012 -1.272957,-0.49012 -0.152551,0 -0.529422,-0.27243 -0.837487,-0.60538 -0.424299,-0.45858 -0.819032,-0.68517 -1.627813,-0.93447 -1.71426198,-0.5284 -2.465171,-0.35634 -1.21913598,0.27933 0.651258,0.33225 1.06457998,0.74361 0.906249,0.90193 -0.05561,0.0556 -0.428989,-6.9e-4 -0.829715,-0.12515 -0.518725,-0.16109 -0.801985,-0.35954 -0.983394,-0.68894 -0.49545002,-0.89963 -1.63236902,-1.15196 -2.47782602,-0.54994 -0.475392,0.33851 -0.812229,0.36117 -1.437943,0.0968 -0.166878,-0.0706 -0.371164,0.0144 -0.584044,0.24296 -0.416714,0.44729 -0.411452,0.50654 0.06772,0.763 0.217319,0.1163 0.373491,0.32088 0.347051,0.45462 -0.03796,0.19204 -0.272401,0.24315 -1.115232,0.24315 -0.79576,0 -1.095197,0.0594 -1.177399,0.23362 -0.06064,0.12854 -0.22718,0.46707 -0.37011,0.75242 -0.399526,0.7976 -0.33598,1.10061 0.28524,1.36018 0.584768,0.24433 0.760861,0.62782 0.223797,0.48738 -0.17672,-0.0462 -0.614757,0.0492 -0.973409,0.21203 -0.358654,0.16283 -0.840696,0.2976 -1.071207,0.29947 -0.230509,10e-4 -0.464418,0.0767 -0.519798,0.16635 -0.06878,0.11122 0.162802,0.12398 0.730604,0.0402 0.457207,-0.0675 1.181715,-0.1232 1.610013,-0.12398 0.646262,-10e-4 0.793024,-0.0543 0.862763,-0.31282 0.14284,-0.52949 0.766287,-0.45277 1.905035,0.23445 0.580028,0.35004 1.134122,0.58729 1.231313,0.52722 0.127786,-0.0789 0.151208,0.13797 0.0846,0.78338 -0.0869,0.84203 -0.06181,0.93232 0.442992,1.59364 0.29431,0.38558 0.578551,0.87411 0.63164,1.08564 0.09028,0.35969 0.11471,0.36816 0.377143,0.13065 0.261486,-0.23664 0.296757,-0.22917 0.517497,0.10952 0.130287,0.19995 0.46527802,0.85268 0.74442202,1.45054 0.421649,0.90302 0.501364,1.24567 0.471027,2.02469 -0.03071,0.78856 -0.110985,1.02439 -0.504712,1.48281 -0.25751,0.29981 -0.63826402,0.89658 -0.84612602,1.32616 -0.341548,0.70585 -0.379795,0.99297 -0.397283,2.98217 -0.01999,2.2748 0.08108,2.7591 0.610938,2.92727 0.57475802,0.18242 0.77310702,0.61423 0.93304602,2.03127 0.224967,1.99319 1.38848498,5.23642 2.16512398,6.03513 0.655367,0.674 0.757313,0.70336 0.898455,0.25867 0.07405,-0.23332 -0.03649,-0.4993 -0.390697,-0.94006 -0.386248,-0.48063 -0.511156,-0.80877 -0.572774,-1.50463 -0.04334,-0.48947 -0.208438,-1.24038 -0.366892,-1.66867 -0.60920498,-1.64669 -0.432461,-1.47966 0.626821,0.5924 0.88091,1.72315 1.204778,2.21224 1.631653,2.46412 0.469921,0.27725 0.588976,0.49162 1.011699,1.82164 0.433761,1.36473 0.555066,1.57732 1.281678,2.24613 0.721947,0.66452 2.624484,1.76088 3.9828363,2.29515 0.43986,0.173 0.595488,0.16346 1.108828,-0.068 l 0.597155,-0.26927 0.724845,0.55328 c 0.810148,0.6184 1.559624,0.87524 2.557771,0.87653 0.858651,0.001 1.274662,0.22629 1.274662,0.68995 0,0.54465 0.414409,0.93844 1.713202,1.62793 1.34582,0.71447 2.161951,0.81639 2.647673,0.33067 z m 1.868947,-6.46344 c 0,-0.25439 -0.850819,-0.33923 -0.998921,-0.0996 -0.129687,0.20984 0.0768,0.33321 0.557642,0.33321 0.288418,0 0.441279,-0.0809 0.441279,-0.23361 z m 3.449349,-0.56598 c 0.501339,-0.18279 0.911526,-0.38731 0.911526,-0.45449 0,-0.0672 0.04242,-0.23267 0.09426,-0.36777 0.08081,-0.2106 -0.01354,-0.2315 -0.661919,-0.1466 -1.076599,0.14099 -1.612774,0.44548 -1.612774,0.91586 0,0.46992 0.112587,0.47462 1.26891,0.053 z m -2.316515,-0.56866 c 0.15193,-0.13428 0.218328,-0.30204 0.147548,-0.37282 -0.12858,-0.12855 -2.240387,-0.47269 -2.682093,-0.43704 -0.128489,0.0104 -0.846867,0.0104 -1.59639,0.001 -0.749528,-0.009 -1.361702,0.0382 -1.36039,0.10627 0.01042,0.54108 0.841881,0.84524 1.986396,0.72668 0.637564,-0.066 1.048223,-0.0234 1.43762,0.14932 0.635306,0.2818 1.648173,0.19667 2.067309,-0.17375 z m 4.821974,-0.51001 c 0.392688,-0.36793 0.437626,-0.45978 0.197143,-0.40296 -0.171324,0.0405 -0.581142,0.11916 -0.910713,0.17497 -0.581232,0.0983 -0.591028,0.11044 -0.32629,0.40296 0.36082,0.39871 0.442196,0.38501 1.03986,-0.17497 z m 11.639191,-14.34017 c -0.850812,-3.33323 -2.364582,-7.17204 -2.697064,-6.83957 -0.08787,0.0879 -0.164095,0.77384 -0.16938,1.52437 -0.0083,1.18289 0.0449,1.46829 0.399713,2.14331 0.225122,0.4283 0.682753,1.30437 1.016959,1.94683 0.67736,1.3021 1.602911,2.70743 1.711566,2.59877 0.03893,-0.0389 -0.07888,-0.65709 -0.261794,-1.37371 z m -3.270988,-7.83753 c 0.153612,-0.1851 0.0092,-0.49357 -0.78345,-1.67427 -1.70798,-2.54392 -2.623554,-3.66508 -4.245678,-5.19897 -3.055674,-2.88947 -5.85512,-4.73979 -9.445025,-6.24281 -1.068216,-0.44723 -1.966976,-0.78839 -1.99724,-0.75813 -0.08296,0.083 0.420783,1.028 0.861953,1.61704 0.344553,0.46005 0.45583,0.51201 0.955022,0.44598 0.310763,-0.0412 0.711768,-0.12307 0.891127,-0.18209 0.256962,-0.0846 0.603661,0.1275 1.635328,1.00069 1.258911,1.06547 2.95907,2.02782 3.977754,2.25156 0.489949,0.10757 0.973508,0.52866 1.269658,1.10554 0.150811,0.29376 0.120232,0.31036 -0.468287,0.25424 -0.680839,-0.065 -0.681662,-0.0554 -0.06814,0.78748 0.332917,0.45738 1.063408,0.78641 1.43194,0.64499 0.34918,-0.134 0.977861,0.3539 1.228268,0.95322 0.184084,0.44057 0.354603,0.57217 0.974224,0.7518 0.804515,0.23324 1.13403,0.63407 1.138152,1.38452 10e-4,0.22998 0.07569,0.61121 0.165404,0.84717 0.266708,0.7015 1.746089,2.20819 2.19294,2.23342 0.05376,0.003 0.182474,-0.0966 0.286047,-0.22138 z m -44.3787843,-2.19092 c 0.108354,-0.13057 0.157981,-0.27641 0.110282,-0.32411 -0.11919,-0.11916 -0.736386,0.22547 -0.736386,0.41123 0,0.23354 0.406974,0.17692 0.626106,-0.0871 z M -10.22655,121.3324 c 0.05152,-0.15671 -0.0256,-0.18227 -0.299482,-0.0994 -0.59514,0.18027 -0.744104,0.41932 -0.225119,0.36126 0.250377,-0.028 0.486446,-0.14588 0.524601,-0.26194 z"
       id="path2613"
       inkscape:export-xdpi="96"
       inkscape:export-ydpi="96" />
  </g>
</svg>
